<svg width="32" height="30" viewBox="0 0 32 30" fill="none" xmlns="http://www.w3.org/2000/svg">
<path d="M28.6867 3.4754C27.9537 2.69063 27.0833 2.06809 26.1254 1.64335C25.1675 1.21861 24.1407 1 23.1038 1C22.0669 1 21.0402 1.21861 20.0822 1.64335C19.1243 2.06809 18.254 2.69063 17.5209 3.4754L15.9996 5.10333L14.4783 3.4754C12.9976 1.89096 10.9894 1.00082 8.89541 1.00082C6.80142 1.00082 4.79319 1.89096 3.31251 3.4754C1.83184 5.05985 1 7.20882 1 9.44957C1 11.6903 1.83184 13.8393 3.31251 15.4237L4.83382 17.0517L15.9996 29L27.1654 17.0517L28.6867 15.4237C29.4201 14.6393 30.0019 13.708 30.3988 12.6829C30.7957 11.6579 31 10.5592 31 9.44957C31 8.33999 30.7957 7.24129 30.3988 6.21622C30.0019 5.19115 29.4201 4.25981 28.6867 3.4754Z" stroke="black" stroke-width="2" stroke-linecap="round" stroke-linejoin="round"/>
</svg>
