<svg width="32" height="28" viewBox="0 0 32 28" fill="none" xmlns="http://www.w3.org/2000/svg">
<path d="M28.6867 3.24962C27.9537 2.53642 27.0833 1.97067 26.1254 1.58467C25.1675 1.19867 24.1407 1 23.1038 1C22.0669 1 21.0402 1.19867 20.0822 1.58467C19.1243 1.97067 18.254 2.53642 17.5209 3.24962L15.9996 4.72906L14.4783 3.24962C12.9976 1.80969 10.9894 1.00075 8.89541 1.00075C6.80142 1.00075 4.79319 1.80969 3.31251 3.24962C1.83184 4.68955 1 6.64251 1 8.67888C1 10.7152 1.83184 12.6682 3.31251 14.1081L4.83382 15.5876L15.9996 26.4461L27.1654 15.5876L28.6867 14.1081C29.4201 13.3953 30.0019 12.5489 30.3988 11.6173C30.7957 10.6857 31 9.68725 31 8.67888C31 7.6705 30.7957 6.67201 30.3988 5.74044C30.0019 4.80887 29.4201 3.96248 28.6867 3.24962Z" fill="#EC8607" stroke="#EC8607" stroke-width="2" stroke-linecap="round" stroke-linejoin="round"/>
</svg>
