<svg width="60" height="60" viewBox="0 0 60 60" fill="none" xmlns="http://www.w3.org/2000/svg">
<g id="Group 124">
<circle id="Ellipse 7" cx="30" cy="30" r="30" fill="#004D40"/>
<path id="Vector" d="M32 21.8998C32.2626 21.6098 32.5744 21.3797 32.9176 21.2227C33.2608 21.0657 33.6286 20.9849 34 20.9849C34.3714 20.9849 34.7392 21.0657 35.0824 21.2227C35.4256 21.3797 35.7374 21.6098 36 21.8998C36.2626 22.1899 36.471 22.5343 36.6131 22.9133C36.7553 23.2923 36.8284 23.6986 36.8284 24.1088C36.8284 24.519 36.7553 24.9253 36.6131 25.3043C36.471 25.6833 36.2626 26.0277 36 26.3178L22.5 41.2282L17 42.8849L18.5 36.8103L32 21.8998Z" stroke="white" stroke-width="2" stroke-linecap="round" stroke-linejoin="round"/>
</g>
</svg>
