<svg width="28" height="28" viewBox="0 0 28 28" fill="none" xmlns="http://www.w3.org/2000/svg">
<path d="M26.5 20.15V23.9C26.5015 24.2481 26.4301 24.5927 26.2907 24.9117C26.1512 25.2307 25.9467 25.517 25.6901 25.7523C25.4336 25.9877 25.1308 26.1669 24.801 26.2784C24.4712 26.3899 24.1218 26.4313 23.775 26.4C19.9286 25.9821 16.2338 24.6677 12.9875 22.5625C9.96732 20.6433 7.40671 18.0827 5.48754 15.0625C3.37501 11.8015 2.06034 8.08874 1.65004 4.225C1.6188 3.87933 1.65988 3.53095 1.77066 3.20203C1.88145 2.87311 2.0595 2.57086 2.2935 2.31453C2.52749 2.05819 2.81229 1.85339 3.12978 1.71315C3.44726 1.57292 3.79046 1.50033 4.13754 1.5H7.88754C8.49417 1.49403 9.08228 1.70885 9.54224 2.10441C10.0022 2.49998 10.3026 3.04931 10.3875 3.65C10.5458 4.85008 10.8394 6.02841 11.2625 7.1625C11.4307 7.6099 11.4671 8.09614 11.3674 8.5636C11.2677 9.03106 11.0361 9.46014 10.7 9.8L9.11254 11.3875C10.892 14.5169 13.4831 17.1081 16.6125 18.8875L18.2 17.3C18.5399 16.9639 18.969 16.7323 19.4364 16.6326C19.9039 16.5329 20.3901 16.5693 20.8375 16.7375C21.9716 17.1607 23.15 17.4542 24.35 17.6125C24.9572 17.6982 25.5118 18.004 25.9082 18.4719C26.3046 18.9397 26.5152 19.537 26.5 20.15Z" stroke="white" stroke-width="2" stroke-linecap="round" stroke-linejoin="round"/>
</svg>
